solid ASCII
  facet normal 1.000000e+00 -0.000000e+00 8.881784e-17
    outer loop
      vertex   5.000000e+00 -5.000000e-01 5.500000e+00
      vertex   5.000000e+00 -5.000000e-01 -4.500000e+00
      vertex   5.000000e+00 9.500000e+00 5.500000e+00
    endloop
  endfacet
  facet normal 1.000000e+00 0.000000e+00 8.881784e-17
    outer loop
      vertex   5.000000e+00 9.500000e+00 5.500000e+00
      vertex   5.000000e+00 -5.000000e-01 -4.500000e+00
      vertex   5.000000e+00 9.500000e+00 -4.500000e+00
    endloop
  endfacet
  facet normal 0.000000e+00 0.000000e+00 1.000000e+00
    outer loop
      vertex   -5.000000e+00 -5.000000e-01 5.500000e+00
      vertex   5.000000e+00 -5.000000e-01 5.500000e+00
      vertex   -5.000000e+00 9.500000e+00 5.500000e+00
    endloop
  endfacet
  facet normal -0.000000e+00 0.000000e+00 1.000000e+00
    outer loop
      vertex   -5.000000e+00 9.500000e+00 5.500000e+00
      vertex   5.000000e+00 -5.000000e-01 5.500000e+00
      vertex   5.000000e+00 9.500000e+00 5.500000e+00
    endloop
  endfacet
  facet normal -1.000000e+00 0.000000e+00 -1.776357e-16
    outer loop
      vertex   -5.000000e+00 -5.000000e-01 -4.500000e+00
      vertex   -5.000000e+00 -5.000000e-01 5.500000e+00
      vertex   -5.000000e+00 9.500000e+00 -4.500000e+00
    endloop
  endfacet
  facet normal -1.000000e+00 8.881784e-17 -8.881784e-17
    outer loop
      vertex   -5.000000e+00 9.500000e+00 -4.500000e+00
      vertex   -5.000000e+00 -5.000000e-01 5.500000e+00
      vertex   -5.000000e+00 9.500000e+00 5.500000e+00
    endloop
  endfacet
  facet normal 0.000000e+00 0.000000e+00 -1.000000e+00
    outer loop
      vertex   5.000000e+00 -5.000000e-01 -4.500000e+00
      vertex   -5.000000e+00 -5.000000e-01 -4.500000e+00
      vertex   5.000000e+00 9.500000e+00 -4.500000e+00
    endloop
  endfacet
  facet normal -0.000000e+00 0.000000e+00 -1.000000e+00
    outer loop
      vertex   5.000000e+00 9.500000e+00 -4.500000e+00
      vertex   -5.000000e+00 -5.000000e-01 -4.500000e+00
      vertex   -5.000000e+00 9.500000e+00 -4.500000e+00
    endloop
  endfacet
  facet normal 0.000000e+00 1.000000e+00 -0.000000e+00
    outer loop
      vertex   -5.000000e+00 9.500000e+00 -4.500000e+00
      vertex   -5.000000e+00 9.500000e+00 5.500000e+00
      vertex   5.000000e+00 9.500000e+00 -4.500000e+00
    endloop
  endfacet
  facet normal 0.000000e+00 1.000000e+00 0.000000e+00
    outer loop
      vertex   5.000000e+00 9.500000e+00 -4.500000e+00
      vertex   -5.000000e+00 9.500000e+00 5.500000e+00
      vertex   5.000000e+00 9.500000e+00 5.500000e+00
    endloop
  endfacet
  facet normal 0.000000e+00 -1.000000e+00 0.000000e+00
    outer loop
      vertex   5.000000e+00 -5.000000e-01 -4.500000e+00
      vertex   5.000000e+00 -5.000000e-01 5.500000e+00
      vertex   -5.000000e+00 -5.000000e-01 -4.500000e+00
    endloop
  endfacet
  facet normal 0.000000e+00 -1.000000e+00 0.000000e+00
    outer loop
      vertex   -5.000000e+00 -5.000000e-01 -4.500000e+00
      vertex   5.000000e+00 -5.000000e-01 5.500000e+00
      vertex   -5.000000e+00 -5.000000e-01 5.500000e+00
    endloop
  endfacet
endsolid
